<?xml version="1.0" encoding="utf-8"?>
<!-- Generator: Adobe Illustrator 26.0.1, SVG Export Plug-In . SVG Version: 6.00 Build 0)  -->
<svg version="1.1" id="Layer_1" xmlns="http://www.w3.org/2000/svg" xmlns:xlink="http://www.w3.org/1999/xlink" x="0px" y="0px"
	 viewBox="0 0 34 34" style="enable-background:new 0 0 34 34;" xml:space="preserve">
<style type="text/css">
	.st0{fill-rule:evenodd;clip-rule:evenodd;fill:#0260FF;}
	.st1{fill:#FFFFFF;}
</style>
<path class="st0" d="M17,34c9.4,0,17-7.6,17-17c0-9.4-7.6-17-17-17C7.6,0,0,7.6,0,17C0,26.4,7.6,34,17,34z M22.3,7.9
	C22.6,7,21.7,6.5,20.9,7L9.5,15.1C8.6,15.7,8.8,17,9.7,17h3v0h5.8l-4.7,1.7l-2.1,7.4c-0.3,0.9,0.6,1.5,1.4,0.9l11.3-8.1
	c0.9-0.6,0.7-1.9-0.2-1.9h-4.5L22.3,7.9z"/>
<circle class="st0" cx="17" cy="17" r="17"/>
<g>
	<path class="st1" d="M16,13.1c-0.1,0.1-0.3,0.1-0.4,0.2c-0.3,0.1-0.5,0.2-0.8,0.3c-0.4,0.2-0.9,0.3-1.4,0.4c-0.3,0.1-0.7,0.2-1,0.3
		c-0.2,0-0.4,0.1-0.7,0.1c-0.2,0-0.4,0.1-0.5,0.1c0,0,0,0-0.1,0c-0.5,0-1,0-1.4,0c-0.3,0-0.6-0.1-0.9-0.1c-0.3,0-0.5-0.1-0.8-0.2
		c-0.3,0-0.5-0.2-0.8-0.3c-0.2-0.1-0.4-0.2-0.6-0.3C6.3,13.4,6,13.2,5.7,13c-0.2-0.2-0.4-0.3-0.6-0.5c-0.3-0.3-0.5-0.6-0.7-1
		c-0.1-0.2-0.2-0.4-0.2-0.5c-0.1-0.2-0.1-0.4-0.2-0.6c0-0.1,0-0.2,0-0.4c0-0.3,0.1-0.6,0.2-0.9c0.1-0.2,0.2-0.4,0.3-0.5
		C4.8,8.3,5.2,8,5.6,7.8C5.8,7.7,6,7.6,6.2,7.5C6.5,7.4,6.7,7.4,7,7.3c0.4-0.1,0.8-0.1,1.1-0.1c0.4,0,0.7,0.1,1.1,0.1
		c0.3,0.1,0.6,0.1,0.9,0.2c0.2,0.1,0.4,0.1,0.7,0.2C11,7.8,11.3,7.9,11.5,8c0.5,0.3,1,0.5,1.4,0.9c0.3,0.2,0.6,0.5,0.8,0.8
		c0.3,0.3,0.5,0.5,0.7,0.8c0.3,0.3,0.5,0.7,0.7,1s0.4,0.6,0.5,0.9C15.9,12.7,15.9,12.9,16,13.1z"/>
	<path class="st1" d="M20.9,26.2c-0.1,0-0.1,0-0.2,0c-0.2,0-0.4-0.1-0.6-0.1c-0.3,0-0.6-0.1-0.9-0.2s-0.5-0.2-0.7-0.3
		c-0.2-0.1-0.3-0.2-0.4-0.3c-0.4-0.3-0.8-0.7-1.1-1c-0.3-0.3-0.5-0.6-0.7-0.9c-0.1-0.2-0.2-0.3-0.3-0.5c-0.1-0.2-0.3-0.5-0.4-0.7
		c-0.1-0.3-0.2-0.5-0.3-0.8c-0.1-0.1-0.1-0.3-0.1-0.4c-0.1-0.2-0.1-0.5-0.2-0.7c0-0.2-0.1-0.4-0.1-0.6s0-0.3-0.1-0.5
		c0-0.2,0-0.3,0-0.5s0-0.3,0-0.5s0-0.3,0-0.5c0-0.4,0.1-0.8,0.3-1.1c0.1-0.3,0.3-0.5,0.4-0.8c0.1-0.2,0.3-0.4,0.4-0.5
		c0.1-0.1,0.2-0.3,0.4-0.4c0.3-0.3,0.6-0.5,1-0.7c0.3-0.2,0.6-0.3,0.9-0.5c0.1-0.1,0.2-0.1,0.4-0.1c0.2-0.1,0.4-0.1,0.6-0.2
		c0.1,0,0.1,0,0.1,0.1s-0.1,0.3-0.1,0.4c-0.1,0.2-0.1,0.3-0.1,0.5C19,14.9,19,15.5,19,16c0,0.4,0,0.9,0.1,1.3c0.1,0.3,0.1,0.7,0.2,1
		c0,0.2,0.1,0.3,0.1,0.5c0.1,0.3,0.2,0.7,0.4,1c0.1,0.2,0.1,0.3,0.2,0.5c0.1,0.3,0.3,0.6,0.4,0.9c0.2,0.4,0.5,0.8,0.8,1.2
		c0.2,0.3,0.4,0.5,0.6,0.8c0.2,0.2,0.3,0.3,0.5,0.5c0.1,0.1,0.2,0.2,0.2,0.2c0.1,0.1,0.2,0.2,0.3,0.2c0.2,0.1,0.3,0.3,0.5,0.4
		c0.3,0.2,0.6,0.3,0.9,0.5c0.1,0,0.1,0,0.2,0s0.1,0.1,0,0.1c-0.1,0.1-0.2,0.1-0.3,0.2c-0.3,0.2-0.6,0.3-0.9,0.4s-0.7,0.2-1,0.3
		c-0.2,0.1-0.4,0.1-0.6,0.1C21.3,26.2,21.1,26.2,20.9,26.2L20.9,26.2z"/>
	<path class="st1" d="M25.3,22.9c-0.3,0-0.5-0.1-0.8-0.2c-0.2-0.1-0.3-0.2-0.5-0.3c-0.2-0.2-0.4-0.3-0.5-0.5c-0.3-0.3-0.6-0.6-0.8-1
		c-0.2-0.4-0.5-0.8-0.7-1.2c-0.1-0.2-0.2-0.4-0.3-0.6c-0.1-0.2-0.2-0.3-0.2-0.5c-0.1-0.2-0.2-0.5-0.2-0.7c-0.1-0.3-0.2-0.6-0.2-0.9
		C21,16.8,21,16.6,21,16.4c0-0.3,0-0.7,0-1.1c0-0.3,0-0.5,0.1-0.8c0-0.2,0.2-0.5,0.3-0.6c0.2-0.3,0.5-0.5,0.8-0.6
		c0.2-0.1,0.4-0.1,0.7-0.1c0.5,0.1,0.9,0.3,1.3,0.5s0.7,0.5,1,0.7c0.2,0.1,0.3,0.3,0.4,0.4c0.2,0.2,0.4,0.5,0.6,0.7
		c0.2,0.3,0.4,0.6,0.6,0.9c0.1,0.1,0.1,0.3,0.2,0.4c0.1,0.3,0.2,0.6,0.3,0.8c0.1,0.5,0.2,0.9,0.2,1.4c0,0.2,0,0.3,0,0.5
		c0,0.3,0,0.6-0.1,0.9c-0.1,0.2-0.1,0.4-0.1,0.6c-0.1,0.3-0.2,0.6-0.3,0.8c-0.1,0.3-0.3,0.5-0.5,0.7C26,22.9,25.7,23,25.3,22.9z"/>
	<path class="st1" d="M17,9.7c0-0.2,0-0.5,0.1-0.8c0-0.3,0.1-0.5,0.2-0.8s0.3-0.6,0.5-0.9c0-0.2,0.1-0.3,0.2-0.4
		c0.2-0.2,0.4-0.4,0.6-0.6C18.8,6.1,19,6,19.3,5.9s0.5-0.1,0.8-0.1c0.4,0,0.8,0.2,1,0.5s0.3,0.6,0.4,0.9c0,0.2,0.1,0.4,0.1,0.6
		c0,0.3-0.1,0.5-0.1,0.8C21.4,9,21.2,9.4,21,9.7c-0.1,0.2-0.3,0.4-0.4,0.6c-0.2,0.2-0.3,0.4-0.5,0.6c-0.2,0.2-0.5,0.4-0.8,0.6
		c-0.3,0.2-0.5,0.4-0.8,0.5c-0.2,0.1-0.5,0.3-0.7,0.4c0,0-0.1,0-0.1-0.1c-0.1-0.1-0.1-0.3-0.2-0.4c-0.1-0.3-0.2-0.6-0.3-0.9
		C17,10.8,17,10.6,17,10.4C17,10.2,17,9.9,17,9.7z"/>
	<path class="st1" d="M12.7,18.8C12.7,18.8,12.7,18.9,12.7,18.8c0.1,0.5,0.1,0.8,0.2,1.2c0.1,0.4,0.2,0.7,0.2,1.1
		c0,0.1,0.1,0.3,0.1,0.4c0,0.2,0.1,0.3,0.2,0.5c0.1,0.2,0.2,0.5,0.3,0.7c0.1,0.3,0.3,0.6,0.4,0.8c0.2,0.3,0.4,0.6,0.6,0.9
		c0.2,0.3,0.4,0.6,0.6,0.8c0.2,0.2,0.3,0.4,0.5,0.5c0,0,0.1,0.1,0.1,0.2l0,0c-0.1,0-0.2,0-0.2,0c-0.2,0-0.4-0.1-0.6-0.1H15
		c-0.3-0.1-0.6-0.1-1-0.2s-0.9-0.2-1.3-0.4c-0.2-0.1-0.4-0.1-0.6-0.2c-0.2-0.1-0.5-0.2-0.7-0.3c-0.3-0.1-0.5-0.2-0.8-0.3
		c-0.3-0.1-0.5-0.4-0.4-0.8s0.3-0.7,0.4-1.1c0.1-0.2,0.1-0.3,0.2-0.5c0.1-0.2,0.2-0.4,0.3-0.7c0.1-0.2,0.2-0.5,0.3-0.7
		s0.3-0.5,0.4-0.7c0.2-0.3,0.3-0.6,0.5-0.9C12.4,19.1,12.5,19,12.7,18.8L12.7,18.8z"/>
</g>
</svg>
