<?xml version="1.0" encoding="utf-8"?>
<!-- Generator: Adobe Illustrator 26.0.1, SVG Export Plug-In . SVG Version: 6.00 Build 0)  -->
<svg version="1.1" id="Layer_1" xmlns="http://www.w3.org/2000/svg" xmlns:xlink="http://www.w3.org/1999/xlink" x="0px" y="0px"
	 viewBox="0 0 115 34" style="enable-background:new 0 0 115 34;" xml:space="preserve">
<style type="text/css">
	.st0{fill-rule:evenodd;clip-rule:evenodd;fill:#0260FF;}
	.st1{display:none;fill:#0E0E0E;}
	.st2{fill:#FFFFFF;}
	.st3{font-family:'HelveticaNeueBold';}
	.st4{font-size:15.7406px;}
</style>
<path class="st0" d="M17,34c9.4,0,17-7.6,17-17c0-9.4-7.6-17-17-17C7.6,0,0,7.6,0,17C0,26.4,7.6,34,17,34z M22.3,7.9
	C22.6,7,21.7,6.5,20.9,7L9.5,15.1C8.6,15.7,8.8,17,9.7,17h3v0h5.8l-4.7,1.7l-2.1,7.4c-0.3,0.9,0.6,1.5,1.4,0.9l11.3-8.1
	c0.9-0.6,0.7-1.9-0.2-1.9h-4.5L22.3,7.9z"/>
<path class="st1" d="M41.7,26V9.1H45V26H41.7z M44.1,26v-2.9h9.3V26H44.1z M44.1,18.8V16h8.5v2.8H44.1z M44.1,12V9.1h9.2V12H44.1z
	 M60.6,26.2c-1.1,0-2-0.3-2.9-0.8s-1.5-1.2-2-2.2c-0.5-0.9-0.7-1.9-0.7-3.1c0-1.2,0.2-2.2,0.7-3.1c0.5-0.9,1.2-1.6,2-2.2
	c0.8-0.5,1.8-0.8,2.9-0.8c0.8,0,1.6,0.2,2.2,0.5c0.7,0.3,1.2,0.8,1.6,1.4c0.4,0.6,0.6,1.3,0.7,2v4.1c0,0.8-0.2,1.4-0.6,2
	s-0.9,1.1-1.6,1.4S61.4,26.2,60.6,26.2z M61.1,23.3c0.6,0,1.1-0.1,1.5-0.4c0.4-0.3,0.8-0.6,1-1.1c0.3-0.5,0.4-1,0.4-1.7
	c0-0.6-0.1-1.1-0.4-1.6c-0.2-0.5-0.6-0.8-1-1.1c-0.4-0.3-0.9-0.4-1.5-0.4c-0.6,0-1.1,0.1-1.6,0.4c-0.4,0.3-0.8,0.6-1,1.1
	c-0.2,0.5-0.4,1-0.4,1.6c0,0.6,0.1,1.2,0.4,1.7c0.3,0.5,0.6,0.8,1.1,1.1C60,23.2,60.6,23.3,61.1,23.3z M67,26h-3.1v-3.1l0.5-2.8
	l-0.5-2.8V8.6H67V26z M75.3,26.2c-1.2,0-2.3-0.3-3.2-0.8c-0.9-0.5-1.7-1.2-2.3-2.2c-0.5-0.9-0.8-2-0.8-3.1c0-1.2,0.3-2.2,0.8-3.1
	c0.5-0.9,1.3-1.6,2.2-2.2c0.9-0.5,2-0.8,3.1-0.8c1.1,0,2.1,0.3,3,0.8c0.9,0.5,1.5,1.2,2,2.1c0.5,0.9,0.7,1.8,0.7,3
	c0,0.2,0,0.4,0,0.6c0,0.2-0.1,0.4-0.1,0.7l-9.7,0V19l8.3,0l-1.3,1c0-0.7-0.2-1.3-0.4-1.7c-0.2-0.5-0.5-0.8-0.9-1.1
	c-0.4-0.3-0.9-0.4-1.5-0.4c-0.6,0-1.2,0.1-1.6,0.4c-0.5,0.3-0.8,0.7-1.1,1.2c-0.2,0.5-0.4,1.1-0.4,1.8c0,0.7,0.1,1.3,0.4,1.8
	c0.3,0.5,0.7,0.9,1.2,1.2c0.5,0.3,1.1,0.4,1.7,0.4c0.6,0,1.1-0.1,1.6-0.3c0.5-0.2,0.9-0.5,1.2-0.9l1.8,1.8c-0.6,0.7-1.2,1.2-2.1,1.5
	C77.2,26.1,76.3,26.2,75.3,26.2z M82.8,26V14.4h3.1V26H82.8z M90.3,26v-6.8c0-0.7-0.2-1.2-0.6-1.6c-0.4-0.4-0.9-0.6-1.6-0.6
	c-0.4,0-0.8,0.1-1.1,0.3c-0.3,0.2-0.6,0.4-0.8,0.7s-0.3,0.7-0.3,1.2l-1.2-0.6c0-0.9,0.2-1.7,0.6-2.3c0.4-0.7,0.9-1.2,1.6-1.5
	c0.7-0.4,1.4-0.6,2.3-0.6c0.8,0,1.5,0.2,2.2,0.6c0.7,0.4,1.2,0.9,1.6,1.5c0.4,0.6,0.6,1.4,0.6,2.3V26H90.3z M97.9,26v-6.8
	c0-0.7-0.2-1.2-0.6-1.6c-0.4-0.4-0.9-0.6-1.6-0.6c-0.4,0-0.8,0.1-1.1,0.3c-0.3,0.2-0.6,0.4-0.8,0.7c-0.2,0.3-0.3,0.7-0.3,1.2
	l-1.8-0.4c0.1-0.9,0.3-1.7,0.7-2.4c0.4-0.7,1-1.2,1.7-1.6c0.7-0.4,1.5-0.6,2.4-0.6c0.9,0,1.6,0.2,2.3,0.6c0.7,0.4,1.2,0.9,1.6,1.5
	c0.4,0.7,0.6,1.5,0.6,2.4V26H97.9z M107.2,26.1l-4.8-11.7h3.4l3.2,8.9h-1.2l3.3-8.9h3.4l-5.2,11.7H107.2z M104,30.8l3.5-7.5l1.9,2.7
	l-2.1,4.8H104z"/>
<circle class="st0" cx="17" cy="17" r="17"/>
<g>
	<path class="st2" d="M16,13.1c-0.1,0.1-0.3,0.1-0.4,0.2c-0.3,0.1-0.5,0.2-0.8,0.3c-0.4,0.2-0.9,0.3-1.4,0.4c-0.3,0.1-0.7,0.2-1,0.3
		c-0.2,0-0.4,0.1-0.7,0.1c-0.2,0-0.4,0.1-0.5,0.1c0,0,0,0-0.1,0c-0.5,0-1,0-1.4,0c-0.3,0-0.6-0.1-0.9-0.1c-0.3,0-0.5-0.1-0.8-0.2
		c-0.3,0-0.5-0.2-0.8-0.3c-0.2-0.1-0.4-0.2-0.6-0.3c-0.3-0.2-0.6-0.4-0.9-0.6c-0.2-0.2-0.4-0.3-0.6-0.5c-0.3-0.3-0.5-0.6-0.7-1
		c-0.1-0.2-0.2-0.4-0.2-0.5c-0.1-0.2-0.1-0.4-0.2-0.6c0-0.1,0-0.2,0-0.4c0-0.3,0.1-0.6,0.2-0.9c0.1-0.2,0.2-0.4,0.3-0.5
		c0.3-0.3,0.7-0.6,1.1-0.8c0.2-0.1,0.4-0.2,0.6-0.3c0.3-0.1,0.5-0.1,0.8-0.2c0.4-0.1,0.8-0.1,1.1-0.1c0.4,0,0.7,0.1,1.1,0.1
		c0.3,0.1,0.6,0.1,0.9,0.2c0.2,0.1,0.4,0.1,0.7,0.2c0.2,0.1,0.5,0.2,0.7,0.3c0.5,0.3,1,0.5,1.4,0.9c0.3,0.2,0.6,0.5,0.8,0.8
		c0.3,0.3,0.5,0.5,0.7,0.8c0.3,0.3,0.5,0.7,0.7,1c0.2,0.3,0.4,0.6,0.5,0.9C15.9,12.7,15.9,12.9,16,13.1z"/>
	<path class="st2" d="M20.9,26.2c-0.1,0-0.1,0-0.2,0c-0.2,0-0.4-0.1-0.6-0.1c-0.3,0-0.6-0.1-0.9-0.2c-0.3-0.1-0.5-0.2-0.7-0.3
		c-0.2-0.1-0.3-0.2-0.4-0.3c-0.4-0.3-0.8-0.7-1.1-1c-0.3-0.3-0.5-0.6-0.7-0.9c-0.1-0.2-0.2-0.3-0.3-0.5c-0.1-0.2-0.3-0.5-0.4-0.7
		c-0.1-0.3-0.2-0.5-0.3-0.8c-0.1-0.1-0.1-0.3-0.1-0.4c-0.1-0.2-0.1-0.5-0.2-0.7c0-0.2-0.1-0.4-0.1-0.6c0-0.2,0-0.3-0.1-0.5
		c0-0.2,0-0.3,0-0.5c0-0.2,0-0.3,0-0.5c0-0.2,0-0.3,0-0.5c0-0.4,0.1-0.8,0.3-1.1c0.1-0.3,0.3-0.5,0.4-0.8c0.1-0.2,0.3-0.4,0.4-0.5
		c0.1-0.1,0.2-0.3,0.4-0.4c0.3-0.3,0.6-0.5,1-0.7c0.3-0.2,0.6-0.3,0.9-0.5c0.1-0.1,0.2-0.1,0.4-0.1c0.2-0.1,0.4-0.1,0.6-0.2
		c0.1,0,0.1,0,0.1,0.1c0,0.1-0.1,0.3-0.1,0.4c-0.1,0.2-0.1,0.3-0.1,0.5c-0.1,0.5-0.1,1.1-0.1,1.6c0,0.4,0,0.9,0.1,1.3
		c0.1,0.3,0.1,0.7,0.2,1c0,0.2,0.1,0.3,0.1,0.5c0.1,0.3,0.2,0.7,0.4,1c0.1,0.2,0.1,0.3,0.2,0.5c0.1,0.3,0.3,0.6,0.4,0.9
		c0.2,0.4,0.5,0.8,0.8,1.2c0.2,0.3,0.4,0.5,0.6,0.8c0.2,0.2,0.3,0.3,0.5,0.5c0.1,0.1,0.2,0.2,0.2,0.2c0.1,0.1,0.2,0.2,0.3,0.2
		c0.2,0.1,0.3,0.3,0.5,0.4c0.3,0.2,0.6,0.3,0.9,0.5c0.1,0,0.1,0,0.2,0c0.1,0,0.1,0.1,0,0.1c-0.1,0.1-0.2,0.1-0.3,0.2
		c-0.3,0.2-0.6,0.3-0.9,0.4c-0.3,0.1-0.7,0.2-1,0.3c-0.2,0.1-0.4,0.1-0.6,0.1C21.3,26.2,21.1,26.2,20.9,26.2
		C20.9,26.2,20.9,26.2,20.9,26.2z"/>
	<path class="st2" d="M25.3,22.9c-0.3,0-0.5-0.1-0.8-0.2c-0.2-0.1-0.3-0.2-0.5-0.3c-0.2-0.2-0.4-0.3-0.5-0.5c-0.3-0.3-0.6-0.6-0.8-1
		c-0.2-0.4-0.5-0.8-0.7-1.2c-0.1-0.2-0.2-0.4-0.3-0.6c-0.1-0.2-0.2-0.3-0.2-0.5c-0.1-0.2-0.2-0.5-0.2-0.7c-0.1-0.3-0.2-0.6-0.2-0.9
		c-0.1-0.2-0.1-0.4-0.1-0.6c0-0.3,0-0.7,0-1.1c0-0.3,0-0.5,0.1-0.8c0-0.2,0.2-0.5,0.3-0.6c0.2-0.3,0.5-0.5,0.8-0.6
		c0.2-0.1,0.4-0.1,0.7-0.1c0.5,0.1,0.9,0.3,1.3,0.5c0.4,0.2,0.7,0.5,1,0.7c0.2,0.1,0.3,0.3,0.4,0.4c0.2,0.2,0.4,0.5,0.6,0.7
		c0.2,0.3,0.4,0.6,0.6,0.9c0.1,0.1,0.1,0.3,0.2,0.4c0.1,0.3,0.2,0.6,0.3,0.8c0.1,0.5,0.2,0.9,0.2,1.4c0,0.2,0,0.3,0,0.5
		c0,0.3,0,0.6-0.1,0.9c-0.1,0.2-0.1,0.4-0.1,0.6c-0.1,0.3-0.2,0.6-0.3,0.8c-0.1,0.3-0.3,0.5-0.5,0.7C26,22.9,25.7,23,25.3,22.9z"/>
	<path class="st2" d="M17,9.7c0-0.2,0-0.5,0.1-0.8c0-0.3,0.1-0.5,0.2-0.8c0.1-0.3,0.3-0.6,0.5-0.9C17.8,7,17.9,6.9,18,6.8
		c0.2-0.2,0.4-0.4,0.6-0.6C18.8,6.1,19,6,19.3,5.9c0.3-0.1,0.5-0.1,0.8-0.1c0.4,0,0.8,0.2,1,0.5c0.2,0.3,0.3,0.6,0.4,0.9
		c0,0.2,0.1,0.4,0.1,0.6c0,0.3-0.1,0.5-0.1,0.8c-0.1,0.4-0.3,0.8-0.5,1.1c-0.1,0.2-0.3,0.4-0.4,0.6c-0.2,0.2-0.3,0.4-0.5,0.6
		c-0.2,0.2-0.5,0.4-0.8,0.6c-0.3,0.2-0.5,0.4-0.8,0.5c-0.2,0.1-0.5,0.3-0.7,0.4c0,0-0.1,0-0.1-0.1c-0.1-0.1-0.1-0.3-0.2-0.4
		c-0.1-0.3-0.2-0.6-0.3-0.9C17,10.8,17,10.6,17,10.4C17,10.2,17,9.9,17,9.7z"/>
	<path class="st2" d="M12.7,18.8C12.7,18.8,12.7,18.9,12.7,18.8c0.1,0.5,0.1,0.8,0.2,1.2c0.1,0.4,0.2,0.7,0.2,1.1
		c0,0.1,0.1,0.3,0.1,0.4c0,0.2,0.1,0.3,0.2,0.5c0.1,0.2,0.2,0.5,0.3,0.7c0.1,0.3,0.3,0.6,0.4,0.8c0.2,0.3,0.4,0.6,0.6,0.9
		c0.2,0.3,0.4,0.6,0.6,0.8c0.2,0.2,0.3,0.4,0.5,0.5c0,0,0.1,0.1,0.1,0.2c0,0,0,0,0,0c-0.1,0-0.2,0-0.2,0c-0.2,0-0.4-0.1-0.6-0.1
		c0,0-0.1,0-0.1,0c-0.3-0.1-0.6-0.1-1-0.2c-0.4-0.1-0.9-0.2-1.3-0.4c-0.2-0.1-0.4-0.1-0.6-0.2c-0.2-0.1-0.5-0.2-0.7-0.3
		c-0.3-0.1-0.5-0.2-0.8-0.3c-0.3-0.1-0.5-0.4-0.4-0.8c0.1-0.4,0.3-0.7,0.4-1.1c0.1-0.2,0.1-0.3,0.2-0.5c0.1-0.2,0.2-0.4,0.3-0.7
		c0.1-0.2,0.2-0.5,0.3-0.7c0.1-0.2,0.3-0.5,0.4-0.7c0.2-0.3,0.3-0.6,0.5-0.9C12.4,19.1,12.5,19,12.7,18.8
		C12.7,18.8,12.7,18.8,12.7,18.8z"/>
</g>
<text transform="matrix(1 0 0 1 34.7988 22.9504)" class="st3 st4">Learn Hive</text>
</svg>
