<?xml version="1.0" encoding="utf-8"?>
<!-- Generator: Adobe Illustrator 26.0.1, SVG Export Plug-In . SVG Version: 6.00 Build 0)  -->
<svg version="1.1" id="Layer_1" xmlns="http://www.w3.org/2000/svg" xmlns:xlink="http://www.w3.org/1999/xlink" x="0px" y="0px"
	 viewBox="0 0 115 34" style="enable-background:new 0 0 115 34;" xml:space="preserve">
<style type="text/css">
	.st0{fill-rule:evenodd;clip-rule:evenodd;fill:#0260FF;}
	.st1{fill:#FFFFFF;}
	.st2{font-family:'HelveticaNeueBold';}
	.st3{font-size:15.4209px;}
</style>
<path class="st0" d="M17,34c9.4,0,17-7.6,17-17S26.4,0,17,0S0,7.6,0,17S7.6,34,17,34z M22.3,7.9C22.6,7,21.7,6.5,20.9,7L9.5,15.1
	C8.6,15.7,8.8,17,9.7,17h3l0,0h5.8l-4.7,1.7l-2.1,7.4c-0.3,0.9,0.6,1.5,1.4,0.9l11.3-8.1c0.9-0.6,0.7-1.9-0.2-1.9h-4.5L22.3,7.9z"/>
<circle class="st0" cx="17" cy="17" r="17"/>
<g>
	<path class="st1" d="M16.9,13.1c-0.1,0.1-0.3,0.1-0.4,0.2c-0.3,0.1-0.5,0.2-0.8,0.3c-0.4,0.2-0.9,0.3-1.4,0.4
		c-0.3,0.1-0.7,0.2-1,0.3c-0.2,0-0.4,0.1-0.7,0.1c-0.2,0-0.4,0.1-0.5,0.1c0,0,0,0-0.1,0c-0.5,0-1,0-1.4,0c-0.3,0-0.6-0.1-0.9-0.1
		c-0.3,0-0.5-0.1-0.8-0.2c-0.3,0-0.5-0.2-0.8-0.3c-0.2-0.1-0.4-0.2-0.6-0.3c-0.3-0.2-0.6-0.4-0.9-0.6c-0.2-0.2-0.4-0.3-0.6-0.5
		c-0.3-0.3-0.5-0.6-0.7-1C5.2,11.4,5.1,11.2,5,11s-0.1-0.4-0.2-0.6c0-0.1,0-0.2,0-0.4c0-0.3,0.1-0.6,0.2-0.9
		c0.1-0.2,0.2-0.4,0.3-0.5C5.6,8.3,6,8,6.4,7.8C6.8,7.7,7,7.6,7.2,7.5c0.3,0,0.5-0.1,0.8-0.1c0.4-0.1,0.8-0.1,1.1-0.1
		c0.4,0,0.7,0.1,1.1,0.1c0.3,0.1,0.6,0.1,0.9,0.2c0.2,0.1,0.4,0.1,0.7,0.2C12,8,12.2,8.1,12.4,8.2c0.5,0.3,1,0.5,1.4,0.9
		c0.3,0.2,0.6,0.5,0.8,0.8c0.3,0.3,0.5,0.5,0.7,0.8c0.3,0.3,0.5,0.7,0.7,1s0.4,0.6,0.5,0.9C16.7,12.7,16.8,12.9,16.9,13.1z"/>
	<path class="st1" d="M21.7,26.2c-0.1,0-0.1,0-0.2,0c-0.2,0-0.4-0.1-0.6-0.1c-0.3,0-0.6-0.1-0.9-0.2s-0.5-0.2-0.7-0.3
		c-0.2-0.1-0.3-0.2-0.4-0.3c-0.4-0.3-0.8-0.7-1.1-1c-0.3-0.3-0.5-0.6-0.7-0.9c-0.1-0.2-0.2-0.3-0.3-0.5c-0.1-0.2-0.3-0.5-0.4-0.7
		c-0.1-0.3-0.2-0.5-0.3-0.8C16,21.3,16,21.1,16,21c-0.1-0.2-0.1-0.5-0.2-0.7c0-0.2-0.1-0.4-0.1-0.6s0-0.3-0.1-0.5c0-0.2,0-0.3,0-0.5
		s0-0.3,0-0.5s0-0.3,0-0.5c0-0.4,0.1-0.8,0.3-1.1c0.1-0.3,0.3-0.5,0.4-0.8c0.1-0.2,0.3-0.4,0.4-0.5s0.2-0.3,0.4-0.4
		c0.3-0.3,0.6-0.5,1-0.7c0.3-0.2,0.6-0.3,0.9-0.5c0.1-0.1,0.2-0.1,0.4-0.1c0.2-0.1,0.4-0.1,0.6-0.2c0.1,0,0.1,0,0.1,0.1
		S20,13.8,20,13.9c-0.1,0.2-0.1,0.3-0.1,0.5c-0.1,0.5-0.1,1.1-0.1,1.6c0,0.4,0,0.9,0.1,1.3c0.1,0.3,0.1,0.7,0.2,1
		c0,0.2,0.1,0.3,0.1,0.5c0.1,0.3,0.2,0.7,0.4,1c0.1,0.2,0.1,0.3,0.2,0.5c0.1,0.3,0.3,0.6,0.4,0.9c0.2,0.4,0.5,0.8,0.8,1.2
		c0.2,0.3,0.4,0.5,0.6,0.8c0.2,0.2,0.3,0.3,0.5,0.5c0.1,0.1,0.2,0.2,0.2,0.2c0.1,0.1,0.2,0.2,0.3,0.2c0.2,0.1,0.3,0.3,0.5,0.4
		c0.3,0.2,0.6,0.3,0.9,0.5c0.1,0,0.1,0,0.2,0s0.1,0.1,0,0.1c-0.1,0.1-0.2,0.1-0.3,0.2c-0.3,0.2-0.6,0.3-0.9,0.4s-0.7,0.2-1,0.3
		c-0.2,0.1-0.4,0.1-0.6,0.1C22.1,26.2,21.9,26.2,21.7,26.2L21.7,26.2z"/>
	<path class="st1" d="M26.1,22.9c-0.3,0-0.5-0.1-0.8-0.2c-0.2-0.1-0.3-0.2-0.5-0.3c-0.2-0.2-0.4-0.3-0.5-0.5c-0.3-0.3-0.6-0.6-0.8-1
		c-0.2-0.4-0.5-0.8-0.7-1.2c-0.1-0.2-0.2-0.4-0.3-0.6c-0.1-0.2-0.2-0.3-0.2-0.5c-0.1-0.2-0.2-0.5-0.2-0.7c-0.1-0.3-0.2-0.6-0.2-0.9
		c-0.1-0.2-0.1-0.4-0.1-0.6c0-0.3,0-0.7,0-1.1c0-0.3,0-0.5,0.1-0.8c0-0.2,0.2-0.5,0.3-0.6c0.2-0.3,0.5-0.5,0.8-0.6
		c0.2-0.1,0.4-0.1,0.7-0.1c0.5,0.1,0.9,0.3,1.3,0.5s0.7,0.5,1,0.7c0.2,0.1,0.3,0.3,0.4,0.4c0.2,0.2,0.4,0.5,0.6,0.7
		c0.2,0.3,0.4,0.6,0.6,0.9c0.1,0.1,0.1,0.3,0.2,0.4c0.1,0.3,0.2,0.6,0.3,0.8c0.1,0.5,0.2,0.9,0.2,1.4c0,0.2,0,0.3,0,0.5
		c0,0.3,0,0.6-0.1,0.9c-0.1,0.2-0.1,0.4-0.1,0.6c-0.1,0.3-0.2,0.6-0.3,0.8c-0.1,0.3-0.3,0.5-0.5,0.7C26.9,22.9,26.5,23,26.1,22.9z"
		/>
	<path class="st1" d="M17.8,9.7c0-0.2,0-0.5,0.1-0.8c0-0.3,0.1-0.5,0.2-0.8s0.3-0.6,0.5-0.9c0.1-0.1,0.2-0.2,0.3-0.3
		c0.2-0.2,0.4-0.4,0.6-0.6c0.2-0.1,0.4-0.3,0.7-0.4c0.3-0.1,0.5-0.1,0.8-0.1c0.4,0,0.8,0.2,1,0.5s0.3,0.6,0.4,0.9
		c0,0.2,0.1,0.4,0.1,0.6c0,0.3-0.1,0.5-0.1,0.8c-0.1,0.4-0.3,0.8-0.5,1.1c-0.1,0.2-0.3,0.4-0.4,0.6c-0.2,0.2-0.3,0.4-0.5,0.6
		c-0.2,0.2-0.5,0.4-0.8,0.6c-0.3,0.2-0.5,0.4-0.8,0.5c-0.2,0.1-0.5,0.3-0.7,0.4c0,0-0.1,0-0.1-0.1c-0.1-0.1-0.1-0.3-0.2-0.4
		c-0.1-0.3-0.2-0.6-0.3-0.9C18,10.8,18,10.6,18,10.3C17.8,10.2,17.8,9.9,17.8,9.7z"/>
	<path class="st1" d="M13.5,18.8C13.5,18.8,13.6,18.9,13.5,18.8c0.1,0.5,0.1,0.8,0.2,1.2c0.1,0.4,0.2,0.7,0.2,1.1
		c0,0.1,0.1,0.3,0.1,0.4c0,0.2,0.1,0.3,0.2,0.5c0.1,0.2,0.2,0.5,0.3,0.7c0.1,0.3,0.3,0.6,0.4,0.8c0.2,0.3,0.4,0.6,0.6,0.9
		c0.2,0.3,0.4,0.6,0.6,0.8c0.2,0.2,0.3,0.4,0.5,0.5c0,0,0.1,0.1,0.1,0.2l0,0c-0.1,0-0.2,0-0.2,0c-0.2,0-0.4-0.1-0.6-0.1h-0.1
		c-0.3-0.1-0.6-0.1-1-0.2s-0.9-0.2-1.3-0.4c-0.2-0.1-0.4-0.1-0.6-0.2c-0.2-0.1-0.5-0.2-0.7-0.3c-0.3-0.1-0.5-0.2-0.8-0.3
		c-0.3-0.1-0.5-0.4-0.4-0.8s0.3-0.7,0.4-1.1c0.1-0.2,0.1-0.3,0.2-0.5c0.1-0.2,0.2-0.4,0.3-0.7c0.1-0.2,0.2-0.5,0.3-0.7
		s0.3-0.5,0.4-0.7c0.2-0.3,0.3-0.6,0.5-0.9C13.2,19.1,13.4,19,13.5,18.8L13.5,18.8z"/>
</g>
<text transform="matrix(1 0 0 1 36.2133 22.2482)" class="st1 st2 st3">Learn Hive</text>
</svg>
